<?xml version="1.0" encoding="UTF-8"?>
<svg xmlns="http://www.w3.org/2000/svg" xmlns:xlink="http://www.w3.org/1999/xlink" width="150px" height="150px" viewBox="0 0 119 119" version="1.1">
<g id="surface1">
<path style=" stroke:none;fill-rule:nonzero;fill:rgb(0%,0%,0%);fill-opacity:1;" d="M 75.550781 74.824219 C 85.476562 74.824219 94.824219 70.898438 101.898438 63.800781 C 109.023438 56.675781 112.925781 47.25 112.925781 37.273438 C 112.925781 16.726562 96.148438 0 75.523438 0 C 68.175781 0 61.074219 2.101562 54.976562 6.050781 C 49.550781 9.574219 45.148438 14.449219 42.175781 20.199219 C 39.625 19.425781 37 19.050781 34.023438 19.050781 C 26.550781 19.050781 19.550781 21.898438 14.273438 27.125 C 8.976562 32.375 6.050781 39.398438 6.050781 46.925781 C 6.050781 62.324219 18.601562 74.824219 34.023438 74.824219 Z M 11.050781 46.949219 C 11.050781 34.324219 21.351562 24.050781 34.023438 24.050781 C 37.199219 24.050781 39.898438 24.550781 42.5 25.648438 C 43.75 26.175781 45.199219 25.601562 45.75 24.351562 C 50.925781 12.601562 62.625 5.023438 75.550781 5.023438 C 93.425781 5.023438 107.949219 19.5 107.949219 37.300781 C 107.949219 55.25 93.425781 69.851562 75.550781 69.851562 L 34.023438 69.851562 C 21.351562 69.851562 11.050781 59.574219 11.050781 46.949219 Z M 11.050781 46.949219 "/>
<path style=" stroke:none;fill-rule:nonzero;fill:rgb(0%,0%,0%);fill-opacity:1;" d="M 35.300781 86.324219 L 29.175781 92.675781 C 28.226562 93.648438 28.25 95.25 29.25 96.199219 C 29.726562 96.675781 30.351562 96.898438 30.976562 96.898438 C 31.625 96.898438 32.273438 96.648438 32.773438 96.125 L 38.898438 89.773438 C 39.851562 88.800781 39.824219 87.199219 38.824219 86.25 C 37.851562 85.300781 36.25 85.324219 35.300781 86.324219 Z M 35.300781 86.324219 "/>
<path style=" stroke:none;fill-rule:nonzero;fill:rgb(0%,0%,0%);fill-opacity:1;" d="M 60.773438 86.324219 L 54.648438 92.675781 C 53.699219 93.648438 53.726562 95.25 54.726562 96.199219 C 55.199219 96.675781 55.824219 96.898438 56.449219 96.898438 C 57.101562 96.898438 57.75 96.648438 58.25 96.125 L 64.375 89.773438 C 65.324219 88.800781 65.300781 87.199219 64.300781 86.25 C 63.324219 85.300781 61.726562 85.324219 60.773438 86.324219 Z M 60.773438 86.324219 "/>
<path style=" stroke:none;fill-rule:nonzero;fill:rgb(0%,0%,0%);fill-opacity:1;" d="M 86.25 86.324219 L 80.125 92.675781 C 79.175781 93.648438 79.199219 95.25 80.199219 96.199219 C 80.675781 96.675781 81.300781 96.898438 81.925781 96.898438 C 82.574219 96.898438 83.226562 96.648438 83.726562 96.125 L 89.851562 89.773438 C 90.800781 88.800781 90.773438 87.199219 89.773438 86.25 C 88.800781 85.300781 87.199219 85.324219 86.25 86.324219 Z M 86.25 86.324219 "/>
<path style=" stroke:none;fill-rule:nonzero;fill:rgb(0%,0%,0%);fill-opacity:1;" d="M 115.226562 86.25 C 114.25 85.300781 112.648438 85.324219 111.699219 86.324219 L 105.574219 92.675781 C 104.625 93.648438 104.648438 95.25 105.648438 96.199219 C 106.125 96.675781 106.75 96.898438 107.375 96.898438 C 108.050781 96.898438 108.699219 96.648438 109.175781 96.125 L 115.300781 89.773438 C 116.25 88.800781 116.226562 87.199219 115.226562 86.25 Z M 115.226562 86.25 "/>
<path style=" stroke:none;fill-rule:nonzero;fill:rgb(0%,0%,0%);fill-opacity:1;" d="M 9.824219 86.324219 L 3.699219 92.675781 C 2.75 93.648438 2.773438 95.25 3.773438 96.199219 C 4.25 96.675781 4.875 96.898438 5.5 96.898438 C 6.148438 96.898438 6.800781 96.648438 7.300781 96.125 L 13.425781 89.773438 C 14.375 88.800781 14.351562 87.199219 13.351562 86.25 C 12.375 85.300781 10.773438 85.324219 9.824219 86.324219 Z M 9.824219 86.324219 "/>
<path style=" stroke:none;fill-rule:nonzero;fill:rgb(0%,0%,0%);fill-opacity:1;" d="M 48.050781 108.648438 L 41.925781 114.75 C 40.949219 115.726562 40.949219 117.300781 41.925781 118.273438 C 42.425781 118.75 43.050781 119 43.699219 119 C 44.351562 119 44.976562 118.75 45.449219 118.273438 L 51.574219 112.175781 C 52.550781 111.199219 52.550781 109.625 51.574219 108.648438 C 50.601562 107.675781 49.023438 107.675781 48.050781 108.648438 Z M 48.050781 108.648438 "/>
<path style=" stroke:none;fill-rule:nonzero;fill:rgb(0%,0%,0%);fill-opacity:1;" d="M 73.523438 108.648438 L 67.398438 114.75 C 66.425781 115.726562 66.425781 117.300781 67.398438 118.273438 C 67.898438 118.75 68.523438 119 69.175781 119 C 69.824219 119 70.449219 118.75 70.925781 118.273438 L 77.050781 112.175781 C 78.023438 111.199219 78.023438 109.625 77.050781 108.648438 C 76.074219 107.675781 74.5 107.675781 73.523438 108.648438 Z M 73.523438 108.648438 "/>
<path style=" stroke:none;fill-rule:nonzero;fill:rgb(0%,0%,0%);fill-opacity:1;" d="M 99 108.648438 L 92.875 114.75 C 91.898438 115.726562 91.898438 117.300781 92.875 118.273438 C 93.375 118.75 94 119 94.648438 119 C 95.300781 119 95.925781 118.75 96.398438 118.273438 L 102.523438 112.175781 C 103.5 111.199219 103.5 109.625 102.523438 108.648438 C 101.550781 107.675781 99.976562 107.675781 99 108.648438 Z M 99 108.648438 "/>
<path style=" stroke:none;fill-rule:nonzero;fill:rgb(0%,0%,0%);fill-opacity:1;" d="M 22.574219 108.648438 L 16.449219 114.75 C 15.476562 115.726562 15.476562 117.300781 16.449219 118.273438 C 16.949219 118.75 17.574219 119 18.226562 119 C 18.875 119 19.523438 118.75 19.976562 118.273438 L 26.101562 112.175781 C 27.074219 111.199219 27.074219 109.625 26.101562 108.648438 C 25.125 107.675781 23.550781 107.675781 22.574219 108.648438 Z M 22.574219 108.648438 "/>
</g>
</svg>
